<mxfile host="app.diagrams.net" agent="Mozilla/5.0 (Macintosh; Intel Mac OS X 10_15_7) AppleWebKit/537.36 (KHTML, like Gecko) Chrome/138.0.0.0 Safari/537.36" version="28.0.7">
  <diagram name="Page-1" id="Vv4Ef8y_16HCIY5V3aFN">
    <mxGraphModel dx="1418" dy="689" grid="0" gridSize="10" guides="1" tooltips="1" connect="0" arrows="1" fold="1" page="0" pageScale="1" pageWidth="850" pageHeight="1100" background="none" math="0" shadow="1">
      <root>
        <mxCell id="0" />
        <mxCell id="1" parent="0" />
        <mxCell id="K0faZ7tdYI0JGZ8K9Q36-39" value="" style="rounded=1;whiteSpace=wrap;html=1;fillColor=#dae8fc;strokeColor=#6c8ebf;movable=0;resizable=0;rotatable=0;deletable=0;editable=0;locked=1;connectable=0;" parent="1" vertex="1">
          <mxGeometry x="50" y="100" width="270" height="250" as="geometry" />
        </mxCell>
        <mxCell id="K0faZ7tdYI0JGZ8K9Q36-24" value="" style="rounded=1;whiteSpace=wrap;html=1;movable=0;resizable=0;rotatable=0;deletable=0;editable=0;locked=1;connectable=0;" parent="1" vertex="1">
          <mxGeometry x="642" y="345" width="90" height="100" as="geometry" />
        </mxCell>
        <mxCell id="K0faZ7tdYI0JGZ8K9Q36-1" value="" style="dashed=0;outlineConnect=0;html=1;align=center;labelPosition=center;verticalLabelPosition=bottom;verticalAlign=top;shape=mxgraph.weblogos.gmail;movable=0;resizable=0;rotatable=0;deletable=0;editable=0;locked=1;connectable=0;" parent="1" vertex="1">
          <mxGeometry x="640" y="71.6" width="64.8" height="46.800000000000004" as="geometry" />
        </mxCell>
        <mxCell id="K0faZ7tdYI0JGZ8K9Q36-6" value="" style="shape=image;html=1;verticalAlign=top;verticalLabelPosition=bottom;labelBackgroundColor=#ffffff;imageAspect=0;aspect=fixed;image=https://cdn2.iconfinder.com/data/icons/weather-color-2/500/weather-02-128.png;movable=0;resizable=0;rotatable=0;deletable=0;editable=0;locked=1;connectable=0;" parent="1" vertex="1">
          <mxGeometry x="655" y="339.2" width="60" height="60" as="geometry" />
        </mxCell>
        <mxCell id="K0faZ7tdYI0JGZ8K9Q36-7" value="" style="shape=image;html=1;verticalAlign=top;verticalLabelPosition=bottom;labelBackgroundColor=#ffffff;imageAspect=0;aspect=fixed;image=https://cdn2.iconfinder.com/data/icons/weather-color-2/500/weather-32-128.png;movable=0;resizable=0;rotatable=0;deletable=0;editable=0;locked=1;connectable=0;" parent="1" vertex="1">
          <mxGeometry x="657" y="387" width="58" height="58" as="geometry" />
        </mxCell>
        <mxCell id="K0faZ7tdYI0JGZ8K9Q36-8" value="" style="image;aspect=fixed;perimeter=ellipsePerimeter;html=1;align=center;shadow=0;dashed=0;spacingTop=3;image=img/lib/active_directory/generic_server.svg;movable=0;resizable=0;rotatable=0;deletable=0;editable=0;locked=1;connectable=0;" parent="1" vertex="1">
          <mxGeometry x="490" y="59.99999999999999" width="39.2" height="70" as="geometry" />
        </mxCell>
        <mxCell id="K0faZ7tdYI0JGZ8K9Q36-10" value="" style="image;aspect=fixed;perimeter=ellipsePerimeter;html=1;align=center;shadow=0;dashed=0;spacingTop=3;image=img/lib/active_directory/generic_server.svg;movable=0;resizable=0;rotatable=0;deletable=0;editable=0;locked=1;connectable=0;" parent="1" vertex="1">
          <mxGeometry x="490.8" y="334.2" width="39.2" height="70" as="geometry" />
        </mxCell>
        <mxCell id="K0faZ7tdYI0JGZ8K9Q36-11" value="&lt;font style=&quot;font-size: 14px;&quot;&gt;&lt;b&gt;&lt;font style=&quot;&quot;&gt;MCP &lt;/font&gt;&lt;font style=&quot;&quot;&gt;Client&lt;/font&gt;&lt;/b&gt;&lt;/font&gt;" style="sketch=0;outlineConnect=0;fontColor=#232F3E;gradientColor=none;strokeColor=#232F3E;fillColor=#ffffff;dashed=0;verticalLabelPosition=bottom;verticalAlign=top;align=center;html=1;fontSize=12;fontStyle=0;aspect=fixed;shape=mxgraph.aws4.resourceIcon;resIcon=mxgraph.aws4.client;movable=0;resizable=0;rotatable=0;deletable=0;editable=0;locked=1;connectable=0;" parent="1" vertex="1">
          <mxGeometry x="278.83" y="192.6" width="73.2" height="73.2" as="geometry" />
        </mxCell>
        <mxCell id="K0faZ7tdYI0JGZ8K9Q36-14" value="" style="shape=image;html=1;verticalAlign=top;verticalLabelPosition=bottom;labelBackgroundColor=#ffffff;imageAspect=0;aspect=fixed;image=https://cdn1.iconfinder.com/data/icons/unicons-line-vol-1/24/brain-128.png;movable=0;resizable=0;rotatable=0;deletable=0;editable=0;locked=1;connectable=0;" parent="1" vertex="1">
          <mxGeometry x="-150" y="189.2" width="80" height="80" as="geometry" />
        </mxCell>
        <mxCell id="K0faZ7tdYI0JGZ8K9Q36-66" style="edgeStyle=orthogonalEdgeStyle;rounded=0;orthogonalLoop=1;jettySize=auto;html=1;movable=0;resizable=0;rotatable=0;deletable=0;editable=0;locked=1;connectable=0;" parent="1" source="K0faZ7tdYI0JGZ8K9Q36-15" target="K0faZ7tdYI0JGZ8K9Q36-63" edge="1">
          <mxGeometry relative="1" as="geometry" />
        </mxCell>
        <mxCell id="K0faZ7tdYI0JGZ8K9Q36-15" value="" style="shape=image;html=1;verticalAlign=top;verticalLabelPosition=bottom;labelBackgroundColor=#ffffff;imageAspect=0;aspect=fixed;image=https://cdn3.iconfinder.com/data/icons/ballicons-reloaded-free/512/icon-93-128.png;movable=0;resizable=0;rotatable=0;deletable=0;editable=0;locked=1;connectable=0;" parent="1" vertex="1">
          <mxGeometry x="62.35000000000001" y="189.20000000000002" width="81.6" height="81.6" as="geometry" />
        </mxCell>
        <mxCell id="K0faZ7tdYI0JGZ8K9Q36-20" value="" style="endArrow=classic;startArrow=classic;html=1;rounded=0;entryX=0;entryY=0.5;entryDx=0;entryDy=0;exitX=1;exitY=0.5;exitDx=0;exitDy=0;movable=0;resizable=0;rotatable=0;deletable=0;editable=0;locked=1;connectable=0;" parent="1" source="K0faZ7tdYI0JGZ8K9Q36-14" target="K0faZ7tdYI0JGZ8K9Q36-15" edge="1">
          <mxGeometry width="50" height="50" relative="1" as="geometry">
            <mxPoint x="180" y="280" as="sourcePoint" />
            <mxPoint x="230" y="230" as="targetPoint" />
          </mxGeometry>
        </mxCell>
        <mxCell id="K0faZ7tdYI0JGZ8K9Q36-21" value="" style="endArrow=classic;startArrow=classic;html=1;rounded=0;exitX=1;exitY=0.5;exitDx=0;exitDy=0;movable=0;resizable=0;rotatable=0;deletable=0;editable=0;locked=1;connectable=0;" parent="1" source="K0faZ7tdYI0JGZ8K9Q36-15" target="K0faZ7tdYI0JGZ8K9Q36-11" edge="1">
          <mxGeometry width="50" height="50" relative="1" as="geometry">
            <mxPoint x="370" y="280" as="sourcePoint" />
            <mxPoint x="420" y="230" as="targetPoint" />
          </mxGeometry>
        </mxCell>
        <mxCell id="K0faZ7tdYI0JGZ8K9Q36-22" value="" style="endArrow=classic;startArrow=classic;html=1;rounded=0;entryX=0;entryY=0.5;entryDx=0;entryDy=0;movable=0;resizable=0;rotatable=0;deletable=0;editable=0;locked=1;connectable=0;" parent="1" source="K0faZ7tdYI0JGZ8K9Q36-11" target="K0faZ7tdYI0JGZ8K9Q36-8" edge="1">
          <mxGeometry width="50" height="50" relative="1" as="geometry">
            <mxPoint x="530" y="210" as="sourcePoint" />
            <mxPoint x="543.2" y="170" as="targetPoint" />
          </mxGeometry>
        </mxCell>
        <mxCell id="K0faZ7tdYI0JGZ8K9Q36-23" value="" style="endArrow=classic;startArrow=classic;html=1;rounded=0;entryX=0;entryY=0.5;entryDx=0;entryDy=0;movable=0;resizable=0;rotatable=0;deletable=0;editable=0;locked=1;connectable=0;" parent="1" source="K0faZ7tdYI0JGZ8K9Q36-11" target="K0faZ7tdYI0JGZ8K9Q36-10" edge="1">
          <mxGeometry width="50" height="50" relative="1" as="geometry">
            <mxPoint x="500" y="290" as="sourcePoint" />
            <mxPoint x="600" y="280" as="targetPoint" />
          </mxGeometry>
        </mxCell>
        <mxCell id="K0faZ7tdYI0JGZ8K9Q36-25" value="" style="endArrow=classic;startArrow=classic;html=1;rounded=0;exitX=1;exitY=0.5;exitDx=0;exitDy=0;movable=0;resizable=0;rotatable=0;deletable=0;editable=0;locked=1;connectable=0;" parent="1" source="K0faZ7tdYI0JGZ8K9Q36-8" target="K0faZ7tdYI0JGZ8K9Q36-1" edge="1">
          <mxGeometry width="50" height="50" relative="1" as="geometry">
            <mxPoint x="649.2" y="180" as="sourcePoint" />
            <mxPoint x="580" y="188" as="targetPoint" />
          </mxGeometry>
        </mxCell>
        <mxCell id="K0faZ7tdYI0JGZ8K9Q36-27" value="" style="endArrow=classic;startArrow=classic;html=1;rounded=0;exitX=1;exitY=0.5;exitDx=0;exitDy=0;entryX=0;entryY=0.25;entryDx=0;entryDy=0;movable=0;resizable=0;rotatable=0;deletable=0;editable=0;locked=1;connectable=0;" parent="1" source="K0faZ7tdYI0JGZ8K9Q36-10" target="K0faZ7tdYI0JGZ8K9Q36-24" edge="1">
          <mxGeometry width="50" height="50" relative="1" as="geometry">
            <mxPoint x="649.2" y="269" as="sourcePoint" />
            <mxPoint x="580" y="270" as="targetPoint" />
          </mxGeometry>
        </mxCell>
        <mxCell id="K0faZ7tdYI0JGZ8K9Q36-29" value="&lt;font style=&quot;font-size: 18px;&quot;&gt;&lt;b&gt;User&lt;/b&gt;&lt;/font&gt;" style="text;html=1;align=center;verticalAlign=middle;whiteSpace=wrap;rounded=0;movable=0;resizable=0;rotatable=0;deletable=0;editable=0;locked=1;connectable=0;" parent="1" vertex="1">
          <mxGeometry x="165" y="480" width="60" height="30" as="geometry" />
        </mxCell>
        <mxCell id="K0faZ7tdYI0JGZ8K9Q36-31" value="&lt;font style=&quot;font-size: 15px;&quot;&gt;&lt;b&gt;MCP Mail Server&lt;/b&gt;&lt;/font&gt;" style="text;html=1;align=center;verticalAlign=middle;whiteSpace=wrap;rounded=0;movable=0;resizable=0;rotatable=0;deletable=0;editable=0;locked=1;connectable=0;" parent="1" vertex="1">
          <mxGeometry x="460" y="20" width="79.6" height="30" as="geometry" />
        </mxCell>
        <mxCell id="K0faZ7tdYI0JGZ8K9Q36-32" value="&lt;font style=&quot;font-size: 15px;&quot;&gt;&lt;b&gt;MCP Weather Server&lt;/b&gt;&lt;/font&gt;" style="text;html=1;align=center;verticalAlign=middle;whiteSpace=wrap;rounded=0;movable=0;resizable=0;rotatable=0;deletable=0;editable=0;locked=1;connectable=0;" parent="1" vertex="1">
          <mxGeometry x="470" y="415" width="60" height="30" as="geometry" />
        </mxCell>
        <mxCell id="K0faZ7tdYI0JGZ8K9Q36-33" value="&lt;font style=&quot;font-size: 15px;&quot;&gt;&lt;b&gt;Mail tool&lt;/b&gt;&lt;/font&gt;" style="text;html=1;align=center;verticalAlign=middle;whiteSpace=wrap;rounded=0;movable=0;resizable=0;rotatable=0;deletable=0;editable=0;locked=1;connectable=0;" parent="1" vertex="1">
          <mxGeometry x="640" y="30" width="70" height="30" as="geometry" />
        </mxCell>
        <mxCell id="K0faZ7tdYI0JGZ8K9Q36-34" value="&lt;font style=&quot;font-size: 15px;&quot;&gt;&lt;b&gt;Weather tool&lt;/b&gt;&lt;/font&gt;" style="text;html=1;align=center;verticalAlign=middle;whiteSpace=wrap;rounded=0;movable=0;resizable=0;rotatable=0;deletable=0;editable=0;locked=1;connectable=0;" parent="1" vertex="1">
          <mxGeometry x="657" y="450" width="60" height="30" as="geometry" />
        </mxCell>
        <mxCell id="K0faZ7tdYI0JGZ8K9Q36-35" value="&lt;font style=&quot;font-size: 18px;&quot;&gt;&lt;b&gt;Agent&lt;/b&gt;&lt;/font&gt;" style="text;html=1;align=center;verticalAlign=middle;whiteSpace=wrap;rounded=0;movable=0;resizable=0;rotatable=0;deletable=0;editable=0;locked=1;connectable=0;" parent="1" vertex="1">
          <mxGeometry x="80.00000000000001" y="158.4" width="60" height="30" as="geometry" />
        </mxCell>
        <mxCell id="K0faZ7tdYI0JGZ8K9Q36-36" value="&lt;font style=&quot;font-size: 18px;&quot;&gt;&lt;b&gt;LLM&lt;/b&gt;&lt;/font&gt;" style="text;html=1;align=center;verticalAlign=middle;whiteSpace=wrap;rounded=0;movable=0;resizable=0;rotatable=0;deletable=0;editable=0;locked=1;connectable=0;" parent="1" vertex="1">
          <mxGeometry x="-140" y="158.4" width="60" height="30" as="geometry" />
        </mxCell>
        <mxCell id="K0faZ7tdYI0JGZ8K9Q36-37" value="Query + tools metadata + ReAct Prompt" style="text;html=1;align=center;verticalAlign=middle;whiteSpace=wrap;rounded=0;movable=0;resizable=0;rotatable=0;deletable=0;editable=0;locked=1;connectable=0;" parent="1" vertex="1">
          <mxGeometry x="-50" y="163.4" width="80" height="59.2" as="geometry" />
        </mxCell>
        <mxCell id="K0faZ7tdYI0JGZ8K9Q36-38" value="Response with Thought, Action, Action Input" style="text;html=1;align=center;verticalAlign=middle;whiteSpace=wrap;rounded=0;movable=0;resizable=0;rotatable=0;deletable=0;editable=0;locked=1;connectable=0;" parent="1" vertex="1">
          <mxGeometry x="-60" y="250" width="90" height="30" as="geometry" />
        </mxCell>
        <mxCell id="K0faZ7tdYI0JGZ8K9Q36-40" value="&lt;font style=&quot;font-size: 15px;&quot;&gt;&lt;b style=&quot;&quot;&gt;MCP Host&lt;/b&gt;&lt;/font&gt;" style="text;html=1;align=center;verticalAlign=middle;whiteSpace=wrap;rounded=0;movable=0;resizable=0;rotatable=0;deletable=0;editable=0;locked=1;connectable=0;" parent="1" vertex="1">
          <mxGeometry x="160" y="60" width="80" height="30" as="geometry" />
        </mxCell>
        <mxCell id="K0faZ7tdYI0JGZ8K9Q36-41" value="tools metadata" style="text;html=1;align=center;verticalAlign=middle;whiteSpace=wrap;rounded=0;movable=0;resizable=0;rotatable=0;deletable=0;editable=0;locked=1;connectable=0;" parent="1" vertex="1">
          <mxGeometry x="180.8" y="192.6" width="60" height="30" as="geometry" />
        </mxCell>
        <mxCell id="K0faZ7tdYI0JGZ8K9Q36-49" value="trigger tool with inputs and gets the response" style="text;html=1;align=center;verticalAlign=middle;whiteSpace=wrap;rounded=0;movable=0;resizable=0;rotatable=0;deletable=0;editable=0;locked=1;connectable=0;" parent="1" vertex="1">
          <mxGeometry x="171.2" y="230" width="80.4" height="80" as="geometry" />
        </mxCell>
        <mxCell id="K0faZ7tdYI0JGZ8K9Q36-50" value="fetch tools metadata" style="text;html=1;align=center;verticalAlign=middle;whiteSpace=wrap;rounded=0;movable=0;resizable=0;rotatable=0;deletable=0;editable=0;locked=1;connectable=0;" parent="1" vertex="1">
          <mxGeometry x="365" y="115.00000000000003" width="60" height="30" as="geometry" />
        </mxCell>
        <mxCell id="K0faZ7tdYI0JGZ8K9Q36-51" value="fetch tools metadata" style="text;html=1;align=center;verticalAlign=middle;whiteSpace=wrap;rounded=0;movable=0;resizable=0;rotatable=0;deletable=0;editable=0;locked=1;connectable=0;" parent="1" vertex="1">
          <mxGeometry x="410" y="280" width="60" height="30" as="geometry" />
        </mxCell>
        <mxCell id="K0faZ7tdYI0JGZ8K9Q36-52" value="Register tools" style="text;html=1;align=center;verticalAlign=middle;whiteSpace=wrap;rounded=0;movable=0;resizable=0;rotatable=0;deletable=0;editable=0;locked=1;connectable=0;" parent="1" vertex="1">
          <mxGeometry x="550" y="60" width="60" height="30" as="geometry" />
        </mxCell>
        <mxCell id="K0faZ7tdYI0JGZ8K9Q36-53" value="trigger tool and get the response" style="text;html=1;align=center;verticalAlign=middle;whiteSpace=wrap;rounded=0;movable=0;resizable=0;rotatable=0;deletable=0;editable=0;locked=1;connectable=0;" parent="1" vertex="1">
          <mxGeometry x="540" y="110" width="80" height="40" as="geometry" />
        </mxCell>
        <mxCell id="K0faZ7tdYI0JGZ8K9Q36-54" value="Register tools" style="text;html=1;align=center;verticalAlign=middle;whiteSpace=wrap;rounded=0;movable=0;resizable=0;rotatable=0;deletable=0;editable=0;locked=1;connectable=0;" parent="1" vertex="1">
          <mxGeometry x="560" y="334" width="60" height="30" as="geometry" />
        </mxCell>
        <mxCell id="K0faZ7tdYI0JGZ8K9Q36-55" value="trigger tool and get the response" style="text;html=1;align=center;verticalAlign=middle;whiteSpace=wrap;rounded=0;movable=0;resizable=0;rotatable=0;deletable=0;editable=0;locked=1;connectable=0;" parent="1" vertex="1">
          <mxGeometry x="550" y="387" width="80" height="30" as="geometry" />
        </mxCell>
        <mxCell id="K0faZ7tdYI0JGZ8K9Q36-59" value="trigger tool with inputs and gets the response" style="text;html=1;align=center;verticalAlign=middle;whiteSpace=wrap;rounded=0;movable=0;resizable=0;rotatable=0;deletable=0;editable=0;locked=1;connectable=0;" parent="1" vertex="1">
          <mxGeometry x="380.8" y="179.20000000000002" width="110" height="30" as="geometry" />
        </mxCell>
        <mxCell id="K0faZ7tdYI0JGZ8K9Q36-60" value="trigger tool with inputs and gets the response" style="text;html=1;align=center;verticalAlign=middle;whiteSpace=wrap;rounded=0;movable=0;resizable=0;rotatable=0;deletable=0;editable=0;locked=1;connectable=0;" parent="1" vertex="1">
          <mxGeometry x="345" y="339.2" width="115" height="30" as="geometry" />
        </mxCell>
        <mxCell id="K0faZ7tdYI0JGZ8K9Q36-61" value="User Query" style="text;html=1;align=center;verticalAlign=middle;whiteSpace=wrap;rounded=0;movable=0;resizable=0;rotatable=0;deletable=0;editable=0;locked=1;connectable=0;" parent="1" vertex="1">
          <mxGeometry x="43.75" y="390" width="60" height="30" as="geometry" />
        </mxCell>
        <mxCell id="K0faZ7tdYI0JGZ8K9Q36-62" value="Response" style="text;html=1;align=center;verticalAlign=middle;whiteSpace=wrap;rounded=0;movable=0;resizable=0;rotatable=0;deletable=0;editable=0;locked=1;connectable=0;" parent="1" vertex="1">
          <mxGeometry x="111.2" y="380" width="60" height="30" as="geometry" />
        </mxCell>
        <mxCell id="K0faZ7tdYI0JGZ8K9Q36-65" style="edgeStyle=orthogonalEdgeStyle;rounded=0;orthogonalLoop=1;jettySize=auto;html=1;entryX=0.5;entryY=1;entryDx=0;entryDy=0;movable=0;resizable=0;rotatable=0;deletable=0;editable=0;locked=1;connectable=0;" parent="1" source="K0faZ7tdYI0JGZ8K9Q36-63" target="K0faZ7tdYI0JGZ8K9Q36-15" edge="1">
          <mxGeometry relative="1" as="geometry" />
        </mxCell>
        <mxCell id="K0faZ7tdYI0JGZ8K9Q36-63" value="" style="html=1;verticalLabelPosition=bottom;labelBackgroundColor=#ffffff;verticalAlign=top;shadow=0;dashed=0;strokeWidth=1;shape=mxgraph.ios7.misc.ipad7inch;strokeColor=#c0c0c0;movable=0;resizable=0;rotatable=0;deletable=0;editable=0;locked=1;connectable=0;" parent="1" vertex="1">
          <mxGeometry x="43.75" y="435" width="118.8" height="100" as="geometry" />
        </mxCell>
      </root>
    </mxGraphModel>
  </diagram>
</mxfile>
